# xmcd CD database file
#
# Track frame offsets:
#	150
#	14645
#	28867
#	44435
#	60902
#	76267
#	89802
#	100932
#	119287
#	133092
#	149145
#	168017
#	186630
#	203137
#	222217
#	238385
#	255047
#	268262
#	284572
#
# Disc length: 3962 seconds
#
# Revision: 1
# Processed by: cddbd v1.5.2PL0 Copyright (c) Steve Scherf et al.
# Submitted via: CDex 1.51
#
DISCID=270f7813
DTITLE=Elmore James - The Comlete Fire - Enjoy Sessions (Disc-3)
DYEAR=1900
DGENRE=Blues
TTITLE0=Hand In Hand (Take 1)
TTITLE1=I've Got A Right To Love My Baby
TTITLE2=Everyday I Have The Blues
TTITLE3=Dust My Broom
TTITLE4=It Hurts Me Too
TTITLE5=Talk To Me Baby
TTITLE6=Can't Stop Loving My Baby
TTITLE7=She's Got To Go
TTITLE8=Hand In Hand (Take 4)
TTITLE9=Pickin' The Blues
TTITLE10=Twelve Year Old Boy
TTITLE11=Up Jumped Elmore
TTITLE12=I Believe
TTITLE13=I Gotta Go Naw
TTITLE14=Make My Dreams Come True
TTITLE15=Back In Mississippi (Conversation)
TTITLE16=Look On Yonder Wall (Wrong Lyrics)
TTITLE17=You Know You Done Me Wrong
TTITLE18=Black Snake Slide
EXTD=
EXTT0=
EXTT1=
EXTT2=
EXTT3=
EXTT4=
EXTT5=
EXTT6=
EXTT7=
EXTT8=
EXTT9=
EXTT10=
EXTT11=
EXTT12=
EXTT13=
EXTT14=
EXTT15=
EXTT16=
EXTT17=
EXTT18=
PLAYORDER=
